HIERARCHY
ROOT Hips
{
	OFFSET 51.063000 -15.537716 96.807098
	CHANNELS 6 Xposition Yposition Zposition Xrotation Yrotation Zrotation
	JOINT spine
	{
		OFFSET 0.000000 -0.458068 7.965683
		CHANNELS 3 Xrotation Yrotation Zrotation
		JOINT spine1
		{
			OFFSET 0.000000 -0.000002 10.243103
			CHANNELS 3 Xrotation Yrotation Zrotation
			JOINT spine2
			{
				OFFSET 0.000000 -0.000001 9.814751
				CHANNELS 3 Xrotation Yrotation Zrotation
				JOINT Neck
				{
					OFFSET 0.000000 -1.201385 25.198601
					CHANNELS 3 Xrotation Yrotation Zrotation
					JOINT Head
					{
						OFFSET 0.000000 0.000000 7.613144
						CHANNELS 3 Xrotation Yrotation Zrotation
						End Site
						{
							OFFSET 0.000000 6.077326 18.428101
						}
					}
				}
				JOINT RightShoulder
				{
					OFFSET -4.132702 0.575449 10.599205
					CHANNELS 3 Xrotation Yrotation Zrotation
					JOINT RightArm
					{
						OFFSET 0.000000 -0.000003 13.901794
						CHANNELS 3 Xrotation Yrotation Zrotation
						JOINT RightArmRoll
						{
							OFFSET 0.000000 -0.000001 7.017883
							CHANNELS 3 Xrotation Yrotation Zrotation
							JOINT RightForeArm
							{
								OFFSET 0.000000 -0.000003 20.440598
								CHANNELS 3 Xrotation Yrotation Zrotation
								JOINT RightForeArmRoll
								{
									OFFSET 0.000000 -0.000002 7.875153
									CHANNELS 3 Xrotation Yrotation Zrotation
									JOINT RightHand
									{
										OFFSET 0.000000 -0.000002 15.803696
										CHANNELS 3 Xrotation Yrotation Zrotation
										End Site
										{
											OFFSET 0.000000 0.000000 0.100006
										}
									}
								}
							}
						}
					}
				}
				JOINT LeftShoulder
				{
					OFFSET 4.132702 0.575449 10.599205
					CHANNELS 3 Xrotation Yrotation Zrotation
					JOINT LeftArm
					{
						OFFSET 0.000000 -0.000003 13.901794
						CHANNELS 3 Xrotation Yrotation Zrotation
						JOINT LeftArmRoll
						{
							OFFSET 0.000000 -0.000001 7.017883
							CHANNELS 3 Xrotation Yrotation Zrotation
							JOINT LeftForeArm
							{
								OFFSET 0.000000 -0.000003 20.440598
								CHANNELS 3 Xrotation Yrotation Zrotation
								JOINT LeftForeArmRoll
								{
									OFFSET 0.000000 -0.000002 7.875168
									CHANNELS 3 Xrotation Yrotation Zrotation
									JOINT LeftHand
									{
										OFFSET 0.000000 -0.000002 15.803696
										CHANNELS 3 Xrotation Yrotation Zrotation
										End Site
										{
											OFFSET 0.000000 0.000000 0.100006
										}
									}
								}
							}
						}
					}
				}
			}
		}
	}
	JOINT RightUpLeg
	{
		OFFSET -7.060482 1.086101 -1.294701
		CHANNELS 3 Xrotation Yrotation Zrotation
		JOINT RightUpLegRoll
		{
			OFFSET 0.000000 -0.000003 18.530800
			CHANNELS 3 Xrotation Yrotation Zrotation
			JOINT RightLeg
			{
				OFFSET 0.000000 0.000003 -22.947601
				CHANNELS 3 Xrotation Yrotation Zrotation
				JOINT RightLegRoll
				{
					OFFSET 0.000000 -0.000003 23.022598
					CHANNELS 3 Xrotation Yrotation Zrotation
					JOINT RightFoot
					{
						OFFSET 0.000000 -0.000004 19.162506
						CHANNELS 3 Xrotation Yrotation Zrotation
						JOINT RightToeBase
						{
							OFFSET 0.000000 -0.000003 16.018799
							CHANNELS 3 Xrotation Yrotation Zrotation
							End Site
							{
								OFFSET 0.006790 0.894205 7.757812
							}
						}
					}
				}
			}
		}
	}
	JOINT LeftUpLeg
	{
		OFFSET 7.060482 1.086101 -1.294701
		CHANNELS 3 Xrotation Yrotation Zrotation
		JOINT LeftUpLegRoll
		{
			OFFSET 0.000000 -0.000003 18.530899
			CHANNELS 3 Xrotation Yrotation Zrotation
			JOINT LeftLeg
			{
				OFFSET 0.000000 -0.000004 22.947502
				CHANNELS 3 Xrotation Yrotation Zrotation
				JOINT LeftLegRoll
				{
					OFFSET 0.000000 -0.000004 23.235504
					CHANNELS 3 Xrotation Yrotation Zrotation
					JOINT LeftFoot
					{
						OFFSET 0.000000 -0.000004 18.949600
						CHANNELS 3 Xrotation Yrotation Zrotation
						JOINT LeftToeBase
						{
							OFFSET 0.000000 -0.000002 16.018799
							CHANNELS 3 Xrotation Yrotation Zrotation
							End Site
							{
								OFFSET -0.030430 0.894205 7.757812
							}
						}
					}
				}
			}
		}
	}
}
MOTION
Frames: 9
Frame Time: 0.041667
51.012497 -14.542016 96.821198 -6.630181 -0.825457 -3.171576 -0.470185 -0.119095 -0.376908 3.061406 -0.238733 -0.773117 4.706434 -0.247849 -0.769299 16.130583 8.295079 3.588331 8.718331 -2.646826 3.988506 -5.828341 -67.270164 -7.576953 -56.298206 -125.654662 -49.656899 0.000001 0.000000 -0.000000 4.476954 -6.647850 -0.614867 -0.000011 0.000007 -3.001749 -5.000235 -7.999144 0.000116 -5.947469 66.157076 7.622323 -52.414387 123.742728 46.087337 0.000000 -0.000000 0.000000 0.099651 4.245854 0.908379 -0.000007 -0.000009 3.004649 -5.000183 7.999552 -0.000047 4.935923 -172.185722 6.611624 -179.999991 0.000005 -1.271995 173.273484 -1.732995 -0.550361 -0.000008 -0.000002 0.113416 69.582887 6.956492 1.909536 25.456947 -7.355614 0.000010 6.687735 174.836191 -2.489185 -0.000020 -0.000004 -1.290460 -5.225840 1.842774 0.196079 -0.000006 0.000001 -0.097254 69.595099 -6.952391 -1.937428 25.456955 7.355612 0.000001 
51.010696 -14.541818 96.812202 -6.617232 -0.821462 -3.176654 -0.470763 -0.121357 -0.376952 3.059947 -0.243219 -0.773313 4.704978 -0.252341 -0.769496 16.130660 8.330362 3.577907 8.651131 -2.668229 3.979652 -5.803884 -67.258505 -7.548471 -56.303377 -125.570064 -49.522372 0.000001 -0.000000 -0.000000 4.462068 -6.552475 -0.622132 -0.000008 0.000008 -3.001749 -5.000240 -7.999142 0.000115 -6.044376 66.151099 7.731663 -52.407331 123.578408 46.048568 0.000001 -0.000000 0.000000 0.159395 4.273183 0.901810 -0.000009 -0.000009 3.004649 -5.000179 7.999553 -0.000047 4.914840 -172.195448 6.595318 -179.999991 0.000005 -1.271995 173.254551 -1.721015 -0.550522 -0.000009 -0.000001 0.113874 69.592306 6.956459 1.909639 25.456952 -7.355613 0.000011 6.658793 174.825945 -2.498016 -0.000020 -0.000004 -1.289910 -5.262511 1.850114 0.197916 -0.000006 0.000001 -0.097060 69.606540 -6.952396 -1.937411 25.456953 7.355612 0.000001 
50.993996 -14.558315 96.787498 -6.604165 -0.817362 -3.182039 -0.471342 -0.123672 -0.377018 3.058469 -0.247813 -0.773607 4.703498 -0.256943 -0.769788 16.130974 8.366428 3.567626 8.582655 -2.689329 3.970832 -5.778254 -67.246184 -7.518619 -56.307215 -125.485752 -49.387452 -0.000000 0.000000 0.000000 4.447190 -6.457528 -0.629337 -0.000010 0.000008 -3.001749 -5.000238 -7.999142 0.000115 -6.142328 66.143811 7.842122 -52.398127 123.416491 46.007816 -0.000000 -0.000000 -0.000000 0.215462 4.300270 0.895118 -0.000010 -0.000009 3.004649 -5.000181 7.999551 -0.000047 4.893305 -172.206158 6.578333 -179.999991 0.000005 -1.270998 173.235071 -1.709023 -0.549692 -0.000009 -0.000002 0.114333 69.601752 6.956493 1.909553 25.456948 -7.355619 0.000012 6.629610 174.815714 -2.506554 -0.000020 -0.000004 -1.289340 -5.299511 1.857163 0.199778 -0.000006 0.000001 -0.096863 69.618206 -6.952440 -1.937388 25.456955 7.355613 0.000001 
50.996597 -14.559916 96.795601 -6.591036 -0.813189 -3.187637 -0.471921 -0.126024 -0.377100 3.056980 -0.252483 -0.773967 4.702009 -0.261621 -0.770150 16.131426 8.403046 3.557468 8.513293 -2.710212 3.962018 -5.751861 -67.233384 -7.487869 -56.309893 -125.401918 -49.251972 -0.000002 -0.000000 -0.000001 4.432316 -6.362872 -0.636490 -0.000010 0.000008 -3.001749 -5.000238 -7.999143 0.000116 -6.240989 66.135540 7.953333 -52.387606 123.256146 45.965838 0.000000 -0.000000 -0.000000 0.268961 4.327172 0.888331 -0.000007 -0.000009 3.004650 -5.000183 7.999552 -0.000048 4.871469 -172.215884 6.561022 -179.999991 0.000005 -1.270998 173.215209 -1.696052 -0.549762 -0.000009 -0.000001 0.114797 69.611280 6.956491 1.909554 25.456952 -7.355614 0.000009 6.600267 174.805469 -2.514887 -0.000020 -0.000004 -1.288750 -5.336732 1.864021 0.201662 -0.000006 0.000001 -0.096661 69.630186 -6.952418 -1.937434 25.456955 7.355612 0.000001 
51.023396 -14.525120 96.813301 -6.577868 -0.808977 -3.193362 -0.472501 -0.128397 -0.377190 3.055471 -0.257197 -0.774366 4.700502 -0.266345 -0.770551 16.131997 8.439975 3.547360 8.443429 -2.730964 3.953177 -5.725066 -67.220393 -7.456635 -56.310146 -125.318999 -49.114121 0.000001 0.000000 -0.000001 4.417463 -6.268395 -0.643580 -0.000010 0.000008 -3.001749 -5.000238 -7.999144 0.000116 -6.340046 66.126784 8.064968 -52.376681 123.096634 45.923474 0.000001 -0.000001 0.000000 0.320991 4.353983 0.881469 -0.000009 -0.000009 3.004650 -5.000178 7.999552 -0.000047 4.849453 -172.226594 6.543397 -179.999991 0.000005 -1.270996 173.195115 -1.684057 -0.549931 -0.000008 -0.000002 0.115261 69.620712 6.956487 1.909662 25.456953 -7.355615 0.000010 6.570831 174.795237 -2.523091 -0.000020 -0.000004 -1.288160 -5.374092 1.870756 0.203560 -0.000006 0.000001 -0.096459 69.642262 -6.952434 -1.937379 25.456957 7.355612 0.000001 
51.012398 -14.537616 96.808594 -6.564679 -0.804757 -3.199117 -0.473087 -0.130777 -0.377282 3.053962 -0.261922 -0.774775 4.698993 -0.271080 -0.770960 16.132574 8.476983 3.537269 8.373425 -2.751668 3.944313 -5.698148 -67.207313 -7.425264 -56.311361 -125.235289 -48.977784 -0.000002 0.000000 -0.000000 4.402614 -6.173943 -0.650621 -0.000012 0.000008 -3.001749 -5.000235 -7.999142 0.000115 -6.439131 66.117850 8.176640 -52.364810 122.937668 45.879945 0.000001 -0.000000 0.000000 0.372652 4.380748 0.874555 -0.000008 -0.000009 3.004650 -5.000180 7.999553 -0.000047 4.827387 -172.237290 6.525725 -179.999991 0.000005 -1.270001 173.174979 -1.671074 -0.548980 -0.000008 -0.000002 0.115728 69.630241 6.956481 1.909661 25.456952 -7.355615 0.000011 6.541375 174.784992 -2.531253 -0.000020 -0.000004 -1.287570 -5.411474 1.877461 0.205468 -0.000006 0.000001 -0.096255 69.654447 -6.952412 -1.937411 25.456957 7.355612 0.000002 
51.000797 -14.572418 96.828598 -6.551521 -0.800561 -3.204818 -0.473666 -0.133144 -0.377370 3.052462 -0.266625 -0.775165 4.697495 -0.275792 -0.771352 16.133052 8.513839 3.527157 8.303677 -2.772415 3.935377 -5.671484 -67.194315 -7.394195 -56.311413 -125.152015 -48.839947 -0.000001 -0.000000 -0.000000 4.387798 -6.079416 -0.657613 -0.000009 0.000008 -3.001749 -5.000238 -7.999142 0.000116 -6.537906 66.108971 8.287990 -52.352997 122.778483 45.836153 -0.000003 -0.000000 0.000000 0.425059 4.407560 0.867602 -0.000006 -0.000009 3.004650 -5.000181 7.999552 -0.000047 4.805412 -172.248000 6.508184 -179.999991 0.000005 -1.270000 173.154953 -1.658106 -0.549012 -0.000008 -0.000002 0.116191 69.639782 6.956473 1.909661 25.456952 -7.355613 0.000010 6.511969 174.774746 -2.539469 -0.000020 -0.000004 -1.286980 -5.448795 1.884213 0.207381 -0.000006 0.000001 -0.096053 69.666523 -6.952384 -1.937549 25.456955 7.355613 0.000001 
51.004498 -14.565619 96.827400 -6.538414 -0.796420 -3.210369 -0.474246 -0.135486 -0.377446 3.050974 -0.271274 -0.775507 4.695997 -0.280449 -0.771693 16.133518 8.550295 3.516952 8.234560 -2.793279 3.926371 -5.645435 -67.181584 -7.363835 -56.311361 -125.068591 -48.701660 0.000000 -0.000000 -0.000000 4.373000 -5.984655 -0.664567 -0.000013 0.000008 -3.001748 -5.000231 -7.999143 0.000115 -6.636055 66.100658 8.398676 -52.341970 122.618151 45.792774 -0.000001 -0.000000 0.000000 0.479308 4.434477 0.860630 -0.000008 -0.000009 3.004650 -5.000181 7.999552 -0.000047 4.783665 -172.257740 6.491034 -179.999991 0.000005 -1.269003 173.135173 -1.645127 -0.549028 -0.000008 -0.000002 0.116654 69.649222 6.956492 1.909573 25.456952 -7.355614 0.000010 6.482671 174.764515 -2.547816 -0.000020 -0.000004 -1.286400 -5.485957 1.891124 0.209298 -0.000006 0.000001 -0.095853 69.678393 -6.952416 -1.937510 25.456957 7.355612 0.000001 
50.993397 -14.566615 96.818298 -6.525389 -0.792368 -3.215672 -0.474819 -0.137786 -0.377507 3.049505 -0.275836 -0.775773 4.694529 -0.285019 -0.771960 16.133767 8.586133 3.506640 8.166442 -2.814367 3.917255 -5.620324 -67.169426 -7.334575 -56.312273 -124.984348 -48.563956 -0.000000 -0.000000 -0.000000 4.358231 -5.889564 -0.671473 -0.000009 0.000007 -3.001748 -5.000235 -7.999142 0.000115 -6.733250 66.093220 8.508354 -52.331591 122.456631 45.749362 -0.000001 -0.000000 0.000000 0.536504 4.461575 0.853649 -0.000008 -0.000009 3.004650 -5.000180 7.999553 -0.000047 4.762268 -172.268477 6.474287 -179.999991 0.000005 -1.269004 173.115871 -1.633153 -0.548145 -0.000008 -0.000002 0.117113 69.658757 6.956479 1.909573 25.456952 -7.355614 0.000009 6.453557 174.754269 -2.556368 -0.000020 -0.000004 -1.285830 -5.522859 1.898244 0.211210 -0.000006 0.000001 -0.095656 69.690053 -6.952401 -1.937477 25.456950 7.355612 0.000003 
